<svg xmlns="http://www.w3.org/2000/svg">
<svg viewBox="0 0 28 28" class="a8c37x1j ms05siws hwsy1cff b7h9ocf4 em6zcovv" height="28" width="28"><path d="M5.75 4A.75.75 0 015 3.25v-1a.75.75 0 011.5 0v1a.75.75 0 01-.75.75zm.75 11.251a.75.75 0 01-1.5 0V8.749a.75.75 0 011.5 0v6.502zM5.75 28a.75.75 0 01-.75-.75v-6.5a.75.75 0 011.5 0v6.5a.75.75 0 01-.75.75zm15.737-16.234L23.214 6.5H9.5v11h13.715l-1.728-5.266a.749.749 0 010-.468zM4.75 5h19.5a.75.75 0 01.713.986l-1.974 6.006 1.974 6.023a.75.75 0 01-.713.985H4.75a.75.75 0 010-1.502L8 17.5v-11H4.75a.749.749 0 110-1.5z"></path></svg>
</svg>